<svg xmlns="http://www.w3.org/2000/svg" width="46.931" height="46.931" data-name="microsoft word" viewBox="0 0 46.931 46.931"><path fill="#41a5ee" d="M41.244,2H9.955A1.955,1.955,0,0,0,8,3.955v8.311L25.6,17.4l17.6-5.133V3.955A1.955,1.955,0,0,0,41.244,2Z" data-name="Path 73" transform="translate(3.733 .933)"/><path fill="#2b7cd3" d="M43.2,9H8V19.266L25.6,24.4l17.6-5.133Z" data-name="Path 74" transform="translate(3.733 4.199)"/><path fill="#185abd" d="M43.2,16H8V26.266L25.6,31.4l17.6-5.133Z" data-name="Path 75" transform="translate(3.733 7.466)"/><path fill="#103f91" d="M43.2,23H8v8.311a1.955,1.955,0,0,0,1.955,1.955H41.244A1.955,1.955,0,0,0,43.2,31.311Z" data-name="Path 76" transform="translate(3.733 10.732)"/><path d="M20.711,7H8V34.866H20.711a1.961,1.961,0,0,0,1.955-1.955V8.955A1.961,1.961,0,0,0,20.711,7Z" data-name="Path 77" opacity=".1" transform="translate(3.733 3.266)"/><path d="M19.244,8H8V35.866H19.244A1.961,1.961,0,0,0,21.2,33.911V9.955A1.961,1.961,0,0,0,19.244,8Z" data-name="Path 78" opacity=".2" transform="translate(3.733 3.733)"/><path d="M19.244,8H8V32.932H19.244A1.961,1.961,0,0,0,21.2,30.977V9.955A1.961,1.961,0,0,0,19.244,8Z" data-name="Path 79" opacity=".2" transform="translate(3.733 3.733)"/><path d="M17.778,8H8V32.932h9.778a1.961,1.961,0,0,0,1.955-1.955V9.955A1.961,1.961,0,0,0,17.778,8Z" data-name="Path 80" opacity=".2" transform="translate(3.733 3.733)"/><path fill="#185abd" d="M1.955,8H21.511a1.955,1.955,0,0,1,1.955,1.955V29.511a1.955,1.955,0,0,1-1.955,1.955H1.955A1.955,1.955,0,0,1,0,29.511V9.955A1.955,1.955,0,0,1,1.955,8Z" data-name="Path 81" transform="translate(0 3.733)"/><path fill="#fff" d="M16.569,25.666H13.93l-3.08-10.12L7.623,25.666H4.983L2.05,11H4.69L6.743,21.266l3.08-9.973h2.2l2.933,9.973L17.009,11H19.5Z" data-name="Path 82" transform="translate(.957 5.133)"/><path fill="none" d="M0,0H46.931V46.931H0Z" data-name="Path 83"/></svg>